<?xml version="1.0" encoding="utf-8"?>
<!-- Generator: Adobe Illustrator 24.3.0, SVG Export Plug-In . SVG Version: 6.00 Build 0)  -->
<svg version="1.1" id="Uploaded_to_svgrepo.com" xmlns="http://www.w3.org/2000/svg" xmlns:xlink="http://www.w3.org/1999/xlink"
	 x="0px" y="0px" width="32px" height="32px" viewBox="0 0 32 32" style="enable-background:new 0 0 32 32;" xml:space="preserve">
<path d="M16,6v20c0,1.1-0.8,1.5-1.7,1L7.7,23c-0.9-0.6-2.6-1-3.7-1H3c-1.1,0-2-0.9-2-2v-8c0-1.1,0.9-2,2-2h1c1.1,0,2.8-0.5,3.7-1
	L14.3,5C15.2,4.5,16,4.9,16,6z M26.6,5.4c-0.8-0.8-2-0.8-2.8,0s-0.8,2,0,2.8c2.1,2.1,3.2,4.8,3.2,7.8s-1.1,5.7-3.2,7.8
	c-0.8,0.8-0.8,2,0,2.8c0.4,0.4,0.9,0.6,1.4,0.6s1-0.2,1.4-0.6C29.4,23.8,31,20,31,16S29.4,8.2,26.6,5.4z M22.4,9.6
	c-0.8-0.8-2-0.8-2.8,0s-0.8,2,0,2.8c0.9,0.9,1.5,2.2,1.5,3.5s-0.5,2.6-1.5,3.5c-0.8,0.8-0.8,2,0,2.8c0.4,0.4,0.9,0.6,1.4,0.6
	s1-0.2,1.4-0.6c1.7-1.7,2.6-4,2.6-6.4S24.1,11.3,22.4,9.6z"/>
</svg>
