<?xml version="1.0" encoding="utf-8"?>
<!-- Generator: Adobe Illustrator 24.3.0, SVG Export Plug-In . SVG Version: 6.00 Build 0)  -->
<svg version="1.1" id="Слой_1" xmlns="http://www.w3.org/2000/svg" xmlns:xlink="http://www.w3.org/1999/xlink" x="0px" y="0px"
	 width="62.5px" height="62.5px" viewBox="0 0 62.5 62.5" style="enable-background:new 0 0 62.5 62.5;" xml:space="preserve">
<style type="text/css">
	.st0{enable-background:new    ;}
</style>
<g class="st0">
	<path d="M35.5,15.9c0,0.1,0,0.3,0,0.5c-0.4,3.5-0.5,9.3-0.5,17.3c0,1.7,0,4.3,0,7.7s0,6,0,7.7c0,0.8-0.3,1.1-0.8,1.1
		s-1.3,0-2.2,0.1c-1,0-1.7,0.1-2.2,0.1c-0.5,0-0.7-0.2-0.7-0.7c0-0.4,0.1-4,0.3-10.7c0.1-3.3,0.1-8,0.1-14.3c0-0.4-0.1-0.7-0.2-0.7
		c-0.4,0-1,0.2-1.8,0.5c-0.8,0.3-1.4,0.5-1.8,0.5c-0.4,0-0.5-0.1-0.5-0.4s0-0.6,0.1-1s0.1-0.8,0.1-1c0-0.2,0-0.5,0-1s0-0.7,0-1
		c0-0.3,0.2-0.5,0.5-0.6c0.9-0.5,1.9-1.3,2.9-2.4c0-0.1,0.5-0.6,1.3-1.8c0.7-1,1.1-1.4,1.2-1.4c0,0,0.6,0.2,1.9,0.5
		c0.5,0.1,1.2,0.2,2.1,0.4C35.4,15.4,35.5,15.6,35.5,15.9z"/>
</g>
</svg>
