<?xml version="1.0" encoding="utf-8"?>
<!-- Generator: Adobe Illustrator 24.3.0, SVG Export Plug-In . SVG Version: 6.00 Build 0)  -->
<svg version="1.1" id="Слой_1" xmlns="http://www.w3.org/2000/svg" xmlns:xlink="http://www.w3.org/1999/xlink" x="0px" y="0px"
	 width="62.5px" height="62.5px" viewBox="0 0 62.5 62.5" style="enable-background:new 0 0 62.5 62.5;" xml:space="preserve">
<g>
	<path d="M11.5,17.5c0,0.1,0,0.2,0,0.4c-0.3,3-0.5,7.9-0.5,14.8c0,1.5,0,3.7,0,6.6s0,5.1,0,6.6c0,0.6-0.2,1-0.6,1
		c-0.4,0-1.1,0-1.9,0s-1.4,0-1.8,0c-0.4,0-0.6-0.2-0.6-0.6c0-0.3,0.1-3.4,0.3-9.1c0.1-2.8,0.1-6.8,0.1-12.2c0-0.4-0.1-0.6-0.2-0.6
		c-0.3,0-0.8,0.1-1.5,0.4s-1.2,0.4-1.5,0.4c-0.3,0-0.5-0.1-0.5-0.3s0-0.5,0-0.9c0-0.4,0-0.7,0-0.9c0-0.2,0-0.5,0-0.8
		c0-0.4,0-0.6,0-0.8c0-0.2,0.1-0.4,0.4-0.5c0.8-0.4,1.6-1.1,2.4-2c0,0,0.4-0.5,1.1-1.5c0.6-0.8,0.9-1.2,1-1.2c0,0,0.5,0.1,1.6,0.4
		c0.4,0.1,1,0.2,1.8,0.4C11.4,17.1,11.5,17.2,11.5,17.5z"/>
	<path d="M36.6,31.9c0,4.2-1,7.8-2.9,10.8c-2.1,3.2-4.7,4.8-8,4.8c-3.2,0-5.9-1.6-8-4.8c-2-3-3-6.6-3-10.8c0-4.2,1-7.7,3-10.7
		c2.1-3.2,4.7-4.8,8-4.8c3.2,0,5.9,1.6,8,4.8C35.6,24.1,36.6,27.7,36.6,31.9z M32,31.9c0-2.5-0.5-4.8-1.6-6.6
		c-1.2-2-2.7-3.1-4.7-3.1s-3.5,1-4.7,3.1c-1,1.8-1.6,4-1.6,6.6c0,2.5,0.5,4.8,1.6,6.6c1.2,2.1,2.7,3.1,4.7,3.1
		c1.9,0,3.4-1.1,4.6-3.2C31.4,36.5,32,34.3,32,31.9z"/>
	<path d="M60.7,31.9c0,4.2-1,7.8-2.9,10.8c-2.1,3.2-4.7,4.8-8,4.8c-3.2,0-5.9-1.6-8-4.8c-2-3-3-6.6-3-10.8c0-4.2,1-7.7,3-10.7
		c2.1-3.2,4.7-4.8,8-4.8c3.2,0,5.9,1.6,8,4.8C59.7,24.1,60.7,27.7,60.7,31.9z M56,31.9c0-2.5-0.5-4.8-1.6-6.6
		c-1.2-2-2.7-3.1-4.7-3.1s-3.5,1-4.7,3.1c-1,1.8-1.6,4-1.6,6.6c0,2.5,0.5,4.8,1.6,6.6c1.2,2.1,2.7,3.1,4.7,3.1
		c1.9,0,3.4-1.1,4.6-3.2C55.5,36.5,56,34.3,56,31.9z"/>
</g>
</svg>
