<?xml version="1.0" encoding="utf-8"?>
<!-- Generator: Adobe Illustrator 24.3.0, SVG Export Plug-In . SVG Version: 6.00 Build 0)  -->
<svg version="1.1" id="Слой_1" xmlns="http://www.w3.org/2000/svg" xmlns:xlink="http://www.w3.org/1999/xlink" x="0px" y="0px"
	 width="62.5px" height="62.5px" viewBox="0 0 62.5 62.5" style="enable-background:new 0 0 62.5 62.5;" xml:space="preserve">
<g class="st0">
	<path d="M22.5,15.9c0,0.1,0,0.3,0,0.5c-0.4,3.5-0.5,9.3-0.5,17.3c0,1.7,0,4.3,0,7.7s0,6,0,7.7c0,0.8-0.3,1.1-0.8,1.1
		s-1.3,0-2.2,0.1c-1,0-1.7,0.1-2.2,0.1c-0.5,0-0.7-0.2-0.7-0.7c0-0.4,0.1-4,0.3-10.7c0.1-3.3,0.1-8,0.1-14.3c0-0.4-0.1-0.7-0.2-0.7
		c-0.4,0-1,0.2-1.8,0.5c-0.8,0.3-1.4,0.5-1.8,0.5c-0.4,0-0.5-0.1-0.5-0.4s0-0.6,0.1-1s0.1-0.8,0.1-1c0-0.2,0-0.5,0-1s0-0.7,0-1
		c0-0.3,0.2-0.5,0.5-0.6c0.9-0.5,1.9-1.3,2.9-2.4c0-0.1,0.5-0.6,1.3-1.8c0.7-1,1.1-1.4,1.2-1.4c0,0,0.6,0.2,1.9,0.5
		c0.5,0.1,1.2,0.2,2.1,0.4C22.4,15.4,22.5,15.6,22.5,15.9z"/>
	<path d="M52.4,32.8c0,4.9-1.2,9.1-3.5,12.7c-2.5,3.8-5.7,5.7-9.5,5.7c-3.8,0-7-1.9-9.5-5.7c-2.3-3.6-3.5-7.8-3.5-12.7
		c0-4.9,1.2-9.1,3.5-12.6c2.5-3.8,5.6-5.6,9.5-5.6c3.9,0,7,1.9,9.5,5.6C51.3,23.7,52.4,27.9,52.4,32.8z M46.9,32.8
		c0-3-0.6-5.6-1.9-7.8c-1.4-2.4-3.3-3.6-5.6-3.6c-2.3,0-4.2,1.2-5.6,3.6c-1.2,2.1-1.9,4.7-1.9,7.8c0,3,0.6,5.6,1.9,7.8
		c1.4,2.4,3.3,3.7,5.6,3.7c2.2,0,4.1-1.3,5.5-3.8C46.3,38.2,46.9,35.7,46.9,32.8z"/>
</g>
</svg>
